<svg xmlns="http://www.w3.org/2000/svg" viewBox="0 0 1024 1024" width="1024" height="1024">
  <defs>
    <linearGradient id="bg" x1="0.12" y1="0.08" x2="0.88" y2="0.92">
      <stop offset="0" stop-color="#071024"/>
      <stop offset="0.62" stop-color="#172554"/>
      <stop offset="1" stop-color="#0284C7"/>
    </linearGradient>
    <radialGradient id="glowA" cx="0.1" cy="0.08" r="0.54">
      <stop offset="0" stop-color="#60A5FA" stop-opacity="0.45"/>
      <stop offset="1" stop-color="#60A5FA" stop-opacity="0"/>
    </radialGradient>
    <radialGradient id="glowB" cx="0.95" cy="0.9" r="0.52">
      <stop offset="0" stop-color="#22D3EE" stop-opacity="0.46"/>
      <stop offset="1" stop-color="#22D3EE" stop-opacity="0"/>
    </radialGradient>
    <radialGradient id="glowC" cx="0.38" cy="0.95" r="0.42">
      <stop offset="0" stop-color="#F472B6" stop-opacity="0.25"/>
      <stop offset="1" stop-color="#F472B6" stop-opacity="0"/>
    </radialGradient>
    <linearGradient id="moon" x1="0.25" y1="0.15" x2="0.85" y2="0.85">
      <stop offset="0" stop-color="#FFF7AD"/>
      <stop offset="1" stop-color="#FDE68A"/>
    </linearGradient>
    <linearGradient id="cloud" x1="0.5" y1="0.1" x2="0.5" y2="1">
      <stop offset="0" stop-color="#FFFFFF"/>
      <stop offset="1" stop-color="#DBEAFE"/>
    </linearGradient>
    <filter id="cloudShadow" x="-20%" y="-20%" width="140%" height="150%">
      <feGaussianBlur in="SourceAlpha" stdDeviation="22"/>
      <feOffset dy="28"/>
      <feComponentTransfer>
        <feFuncA type="linear" slope="0.42"/>
      </feComponentTransfer>
      <feMerge>
        <feMergeNode/>
        <feMergeNode in="SourceGraphic"/>
      </feMerge>
    </filter>
    <clipPath id="shape">
      <rect x="48" y="48" width="928" height="928" rx="218"/>
    </clipPath>
  </defs>
  <g clip-path="url(#shape)">
    <rect width="1024" height="1024" fill="url(#bg)"/>
    <rect width="1024" height="1024" fill="url(#glowA)"/>
    <rect width="1024" height="1024" fill="url(#glowB)"/>
    <rect width="1024" height="1024" fill="url(#glowC)"/>
    <ellipse cx="536" cy="380" rx="410" ry="260" fill="#FFFFFF" opacity="0.07"/>
    <g fill="#FFFFFF">
      <path opacity="0.72" d="M266 252c9 29 18 38 48 48-30 10-39 19-48 48-10-29-19-38-49-48 30-10 39-19 49-48z"/>
      <path opacity="0.68" d="M734 210c6 20 13 27 33 34-20 6-27 13-33 33-7-20-14-27-34-33 20-7 27-14 34-34z"/>
      <path opacity="0.56" d="M814 380c5 16 10 21 26 26-16 6-21 11-26 27-5-16-10-21-26-27 16-5 21-10 26-26z"/>
      <path opacity="0.48" d="M208 468c4 13 8 17 21 21-13 5-17 9-21 22-5-13-9-17-22-22 13-4 17-8 22-21z"/>
    </g>
    <g filter="url(#cloudShadow)">
      <circle cx="686" cy="350" r="130" fill="url(#moon)"/>
      <circle cx="750" cy="300" r="122" fill="#172554"/>
      <path fill="url(#cloud)" d="
        M 254 828
        C 205 828 182 796 182 750
        C 182 692 218 648 270 628
        C 286 555 350 504 426 504
        C 468 426 550 382 640 382
        C 740 382 820 448 848 538
        C 905 546 948 596 948 656
        C 948 724 892 778 824 778
        L 808 778
        C 800 807 774 828 742 828
        Z"/>
      <rect x="246" y="700" width="560" height="70" rx="35" fill="#DBEAFE" opacity="0.64"/>
      <ellipse cx="548" cy="480" rx="125" ry="56" fill="#FFFFFF" opacity="0.30"/>
    </g>
    <rect x="48" y="48" width="928" height="928" rx="218" fill="none" stroke="#FFFFFF" stroke-opacity="0.15" stroke-width="3"/>
  </g>
</svg>
